<svg width="164" height="160" viewBox="0 0 164 160" fill="none" xmlns="http://www.w3.org/2000/svg">
<path d="M111.232 73.9722H52.8728V76.6511H111.232V73.9722Z" fill="url(#paint0_linear)"/>
<path d="M52.8728 63.6687V72.6328H111.232V63.6687H52.8728ZM57.0118 69.5417C56.2874 69.5417 55.6666 68.9235 55.6666 68.2023C55.6666 67.481 56.2874 66.8628 57.0118 66.8628C57.7361 66.8628 58.3569 67.481 58.3569 68.2023C58.4604 68.9235 57.8395 69.5417 57.0118 69.5417ZM65.3931 69.5417C64.6688 69.5417 64.048 68.9235 64.048 68.2023C64.048 67.481 64.6688 66.8628 65.3931 66.8628C66.1174 66.8628 66.7383 67.481 66.7383 68.2023C66.7383 68.9235 66.1174 69.5417 65.3931 69.5417ZM73.671 69.5417C72.9467 69.5417 72.3259 68.9235 72.3259 68.2023C72.3259 67.481 72.9467 66.8628 73.671 66.8628C74.3953 66.8628 75.0162 67.481 75.0162 68.2023C75.1197 68.9235 74.4988 69.5417 73.671 69.5417ZM82.0524 69.5417C81.3281 69.5417 80.7073 68.9235 80.7073 68.2023C80.7073 67.481 81.3281 66.8628 82.0524 66.8628C82.7767 66.8628 83.3976 67.481 83.3976 68.2023C83.3976 68.9235 82.7767 69.5417 82.0524 69.5417ZM90.3303 69.5417C89.606 69.5417 88.9852 68.9235 88.9852 68.2023C88.9852 67.481 89.606 66.8628 90.3303 66.8628C91.0546 66.8628 91.6755 67.481 91.6755 68.2023C91.7789 68.9235 91.1581 69.5417 90.3303 69.5417ZM98.7117 69.5417C97.9874 69.5417 97.3665 68.9235 97.3665 68.2023C97.3665 67.481 97.9874 66.8628 98.7117 66.8628C99.436 66.8628 100.057 67.481 100.057 68.2023C100.057 68.9235 99.436 69.5417 98.7117 69.5417ZM106.99 69.5417C106.265 69.5417 105.644 68.9235 105.644 68.2023C105.644 67.481 106.265 66.8628 106.99 66.8628C107.714 66.8628 108.335 67.481 108.335 68.2023C108.438 68.9235 107.817 69.5417 106.99 69.5417Z" fill="url(#paint1_linear)"/>
<path d="M113.508 39.0435C113.508 38.9404 113.611 38.9404 113.611 38.8374L113.508 39.0435Z" fill="url(#paint2_linear)"/>
<path d="M114.543 32.7581C112.784 32.7581 111.438 34.2006 111.438 35.8491C111.438 36.9825 112.059 37.9098 112.887 38.5281C112.37 39.3523 110.3 42.5465 107.093 45.3284C104.92 46.874 101.402 49.3468 98.6077 48.9347C97.573 48.8316 96.6417 48.2134 95.8139 47.5952C94.2618 46.5649 92.9167 45.3284 91.675 43.989C86.5013 37.9098 83.3971 29.9761 83.3971 29.9761C84.5353 29.4609 85.3631 28.4305 85.3631 27.0911C85.3631 25.3395 83.9145 24 82.2589 24C80.6033 24 79.1547 25.4425 79.1547 27.0911C79.1547 28.4305 79.9825 29.5639 81.1207 29.9761C81.1207 29.9761 78.0165 37.9098 72.8428 43.989C71.6011 45.3284 70.2559 46.5649 68.7038 47.5952C67.876 48.2134 66.9448 48.7286 65.91 48.9347C63.1162 49.2438 59.5981 46.874 57.4252 45.3284C53.7001 42.0313 51.4237 38.322 51.4237 38.322C52.4584 37.8068 53.0793 36.7765 53.0793 35.54C53.0793 33.7884 51.6306 32.4489 49.9751 32.4489C48.3195 32.4489 46.8708 33.8914 46.8708 35.54C46.8708 37.1886 48.3195 38.6311 49.9751 38.6311C50.182 38.6311 50.389 38.6311 50.6994 38.5281C50.9063 41.104 53.0793 62.3294 53.0793 62.3294H82.3624H111.645C111.645 62.3294 113.715 42.1343 114.025 38.7341C114.232 38.8372 114.543 38.8372 114.853 38.8372C116.612 38.8372 117.957 37.3947 117.957 35.7461C117.957 34.0975 116.302 32.7581 114.543 32.7581ZM50.4924 38.8372C50.4924 38.9402 50.5959 39.0432 50.5959 39.0432C50.5959 39.0432 50.4924 38.9402 50.4924 38.8372ZM60.5294 54.1895C60.3224 55.4259 59.7016 56.5593 58.7703 57.3836C58.253 57.7958 57.7356 58.1049 57.1148 58.311C56.9078 58.414 56.287 58.414 56.1835 58.517C57.5286 57.0745 58.8738 55.2199 58.5634 53.1592C58.4599 52.1288 57.9425 51.2015 57.2182 50.4802C56.5974 49.862 55.9765 49.3468 55.1488 48.9347C54.8383 48.7286 54.0105 48.1104 53.5966 48.1104C56.3904 47.8013 58.7703 49.1408 60.012 51.7167C60.219 52.1288 60.4259 52.5409 60.4259 53.0561C60.5294 53.4683 60.5294 53.7774 60.5294 54.1895ZM69.2212 56.8685C69.4281 56.4563 69.2212 55.1168 69.2212 54.7047C69.1177 54.0865 68.9108 53.5713 68.3934 53.2622C68.1864 53.1592 67.876 53.0561 67.5656 53.0561C67.2552 53.0561 67.0482 53.1592 66.8413 53.3652C66.4274 53.6743 66.3239 54.0865 66.2204 54.6017C66.2204 54.9108 66.117 56.6624 66.4274 56.8685C66.0135 56.5593 65.7031 55.9411 65.4961 55.4259C65.2892 54.9108 65.1857 54.1895 65.2892 53.6743C65.3927 53.1592 65.7031 52.747 66.0135 52.4379C66.8413 51.6136 68.1864 51.3045 69.2212 51.9227C69.9455 52.4379 70.2559 53.4683 70.2559 54.3956C69.9455 55.1168 69.6351 56.0442 69.2212 56.8685ZM86.7082 56.9715C86.1909 57.4867 85.6735 57.8988 85.1561 58.2079C84.8457 58.414 84.1214 58.6201 84.0179 58.9292C85.4666 56.8685 86.9152 54.2926 86.8117 51.7167C86.8117 50.0681 85.8805 48.5225 84.6388 47.4922C83.9145 46.874 82.8797 46.4618 81.845 46.5649C79.879 46.7709 77.913 49.0377 77.706 50.9954C77.2921 53.8804 79.0512 56.7654 80.7068 59.0322C78.2234 57.7958 76.4643 55.632 75.947 52.85C75.5331 50.2742 76.4643 47.4922 78.5338 45.8436C80.3963 44.4011 83.5006 43.6799 85.4666 45.2254C87.1221 46.4618 88.2604 48.4195 88.6743 50.4802C89.1916 52.747 88.3638 55.1168 86.7082 56.9715ZM97.8834 56.8685C98.0904 56.4563 97.8834 55.1168 97.8834 54.7047C97.7799 54.0865 97.573 53.5713 97.0556 53.2622C96.8487 53.1592 96.5382 53.0561 96.2278 53.0561C95.9174 53.0561 95.7105 53.1592 95.5035 53.3652C95.0896 53.6743 94.9861 54.0865 94.8827 54.6017C94.8827 54.9108 94.7792 56.6624 95.0896 56.8685C94.6757 56.5593 94.3653 55.9411 94.1584 55.4259C93.9514 54.9108 93.8479 54.1895 93.9514 53.6743C94.0549 53.1592 94.3653 52.747 94.6757 52.4379C95.5035 51.6136 96.8487 51.3045 97.8834 51.9227C98.6077 52.4379 98.9181 53.4683 98.9181 54.3956C98.6077 55.1168 98.2973 56.0442 97.8834 56.8685ZM109.266 48.9347C108.541 49.3468 107.817 49.862 107.196 50.4802C106.472 51.2015 105.954 52.1288 105.851 53.1592C105.644 55.2199 106.886 57.0745 108.231 58.517C108.127 58.414 107.506 58.311 107.3 58.311C106.679 58.1049 106.161 57.7958 105.644 57.3836C104.713 56.5593 104.092 55.4259 103.885 54.1895C103.781 53.7774 103.781 53.4683 103.885 53.0561C103.988 52.644 104.092 52.1288 104.299 51.7167C105.54 49.1408 107.92 47.8013 110.714 48.1104C110.404 48.1104 109.679 48.7286 109.266 48.9347ZM113.508 39.0432L113.611 38.8372C113.611 38.9402 113.611 39.0432 113.508 39.0432Z" fill="url(#paint3_linear)"/>
<path d="M36.2134 91.7979V90.3554H36.6273C37.0411 90.3554 37.2481 90.3554 37.3516 90.2524C37.455 90.2524 37.455 90.1494 37.455 90.0463C37.455 89.9433 37.455 89.9433 37.455 89.8403C37.455 89.7372 37.455 89.7372 37.455 89.6342L37.1446 88.6038H34.3508L34.0404 89.5311C34.0404 89.7372 33.9369 89.8403 33.9369 89.9433C33.9369 90.0463 33.9369 90.1494 33.9369 90.1494C33.9369 90.2524 34.0404 90.2524 34.1439 90.3554C34.2474 90.3554 34.4543 90.4585 34.6613 90.4585H35.0751V91.901H30.7292V90.4585H31.1431C31.3501 90.4585 31.557 90.3554 31.764 90.2524C31.9709 90.0463 32.0744 89.8403 32.1779 89.4281L34.7647 82.0095H38.3863L40.6627 89.4281C40.8697 89.9433 40.9731 90.2524 41.0766 90.3554C41.1801 90.4585 41.387 90.4585 41.6975 90.4585H42.2148V91.901H36.2134V91.7979ZM36.5238 87.2644L35.5925 84.2763L34.7647 87.2644H36.5238Z" fill="white"/>
<path d="M43.1459 89.5311V84.1733C43.1459 83.7611 43.1459 83.5551 43.0425 83.452C42.939 83.349 42.732 83.349 42.4216 83.349H41.9043V82.0095H48.7335C49.9752 82.0095 50.803 82.2156 51.4238 82.6277C52.0447 83.0399 52.3551 83.6581 52.3551 84.4824C52.3551 84.9976 52.1482 85.5127 51.8377 85.9249C51.4238 86.337 50.9065 86.5431 50.2856 86.7492C50.9065 86.8522 51.4238 87.0583 51.6308 87.3674C51.8377 87.6765 51.9412 88.3977 51.9412 89.6342C51.9412 89.9433 51.9412 90.2524 52.0447 90.3554C52.1482 90.4585 52.2516 90.5615 52.3551 90.5615C52.4586 90.5615 52.562 90.4585 52.6655 90.3554C52.769 90.1493 52.769 89.9433 52.769 89.6342C52.769 89.6342 52.769 89.5311 52.769 89.4281C52.769 89.3251 52.769 89.3251 52.769 89.222H53.8037C53.8037 89.222 53.8037 89.3251 53.8037 89.4281C53.8037 89.5311 53.8037 89.5311 53.8037 89.6342C53.8037 90.5615 53.5968 91.1797 53.2864 91.5918C52.8725 92.004 52.2516 92.2101 51.4238 92.2101C50.4926 92.2101 49.8717 92.004 49.4578 91.6949C49.0439 91.2827 48.837 90.7676 48.837 89.9433V88.9129C48.837 88.2947 48.7335 87.8826 48.5266 87.6765C48.3196 87.4704 48.0092 87.3674 47.3884 87.3674H46.4571V89.5311C46.4571 89.9433 46.4571 90.1493 46.5606 90.2524C46.664 90.3554 46.871 90.3554 47.1814 90.3554H47.6988V91.7979H41.8008V90.3554H42.3181C42.6286 90.3554 42.8355 90.3554 42.939 90.2524C43.0425 90.1493 43.1459 89.9433 43.1459 89.5311ZM46.3536 86.0279H47.1814C47.8023 86.0279 48.2162 85.9249 48.4231 85.7188C48.63 85.5127 48.837 85.2036 48.837 84.7915C48.837 84.2763 48.7335 83.9672 48.5266 83.7611C48.3196 83.5551 47.9057 83.452 47.2849 83.452H46.3536V86.0279Z" fill="white"/>
<path d="M59.8053 87.9854V86.6459H65.2894V87.9854H64.979C64.6686 87.9854 64.4616 87.9854 64.3581 88.0884C64.2547 88.1915 64.2547 88.3975 64.2547 88.8097V91.9008H62.4956L61.9783 91.2825C61.4609 91.5917 61.047 91.7977 60.5296 91.9008C60.0123 92.0038 59.5984 92.1068 59.081 92.1068C57.5289 92.1068 56.3907 91.5916 55.4594 90.6643C54.5282 89.737 54.1143 88.5006 54.1143 86.852C54.1143 85.3065 54.6316 83.967 55.5629 83.0397C56.4942 82.1123 57.7358 81.5972 59.2879 81.5972C59.8053 81.5972 60.3227 81.7002 60.7366 81.8032C61.1505 81.9063 61.5644 82.1123 61.9783 82.3184L62.1852 81.8032H63.7373V85.8216H61.9783C61.7713 84.8943 61.5644 84.1731 61.2539 83.7609C60.9435 83.3488 60.4262 83.1427 59.8053 83.1427C59.1845 83.1427 58.6671 83.4518 58.3567 83.967C58.0463 84.5852 57.9428 85.5125 57.9428 86.749C57.9428 88.0884 58.0463 89.0158 58.3567 89.634C58.6671 90.2522 59.1845 90.5613 59.8053 90.5613C60.2192 90.5613 60.5296 90.4583 60.6331 90.3552C60.7366 90.2522 60.84 89.9431 60.84 89.5309V88.8097C60.84 88.3975 60.84 88.1915 60.7366 88.0884C60.6331 87.9854 60.4261 87.9854 60.0123 87.9854H59.8053Z" fill="white"/>
<path d="M70.7735 91.7977V90.3552H71.1874C71.6012 90.3552 71.8082 90.3552 71.9117 90.2522C72.0151 90.2522 72.0151 90.1491 72.0151 90.0461C72.0151 89.9431 72.0151 89.9431 72.0151 89.84C72.0151 89.737 72.0151 89.737 72.0151 89.634L71.7047 88.6036H69.0144L68.704 89.5309C68.6005 89.634 68.6005 89.737 68.6005 89.84C68.6005 89.9431 68.6005 90.0461 68.6005 90.0461C68.6005 90.1491 68.704 90.1491 68.8075 90.2522C68.9109 90.2522 69.1179 90.3552 69.3248 90.3552H69.8422V91.7977H65.3928V90.3552H65.8067C66.0137 90.3552 66.2206 90.2522 66.4276 90.1491C66.6345 89.9431 66.738 89.737 66.8415 89.3248L69.4283 81.9062H73.0499L75.3263 89.3248C75.5333 89.84 75.6367 90.1491 75.7402 90.2522C75.8437 90.3552 76.0506 90.3552 76.361 90.3552H76.8784V91.7977H70.7735ZM71.1874 87.2641L70.2561 84.2761L69.4283 87.2641H71.1874Z" fill="white"/>
<path d="M91.1582 82.0095V83.349H90.6408C90.3304 83.349 90.1234 83.349 90.02 83.452C89.9165 83.5551 89.9165 83.7611 89.9165 84.1733V89.5311C89.9165 89.9433 89.9165 90.1493 90.02 90.2524C90.1234 90.3554 90.3304 90.3554 90.6408 90.3554H91.1582V91.7979H85.7775V90.3554H86.1914C86.5018 90.3554 86.7088 90.3554 86.8123 90.2524C86.9157 90.1493 87.0192 89.9433 87.0192 89.5311V83.5551L84.5358 91.7979H82.2594L79.8795 83.5551V89.5311C79.8795 89.9433 79.8795 90.1493 79.983 90.2524C80.0865 90.3554 80.2934 90.3554 80.6038 90.3554H81.0177V91.7979H76.5684V90.3554H76.9823C77.2927 90.3554 77.4996 90.3554 77.6031 90.2524C77.7066 90.1493 77.7066 89.9433 77.7066 89.5311V84.1733C77.7066 83.7611 77.7066 83.5551 77.6031 83.452C77.4996 83.349 77.2927 83.349 76.9823 83.349H76.5684V82.0095H82.1559L83.8115 87.8826L85.6741 82.0095H91.1582Z" fill="white"/>
<path d="M96.4346 91.7977V90.3552H96.8484C97.2623 90.3552 97.4693 90.3552 97.5728 90.2522C97.6762 90.2522 97.6762 90.1491 97.6762 90.0461C97.6762 89.9431 97.6762 89.9431 97.6762 89.84C97.6762 89.737 97.6762 89.737 97.6762 89.634L97.3658 88.6036H94.6755L94.3651 89.5309C94.2616 89.634 94.2616 89.737 94.2616 89.84C94.2616 89.9431 94.2616 90.0461 94.2616 90.0461C94.2616 90.1491 94.3651 90.1491 94.4686 90.2522C94.572 90.2522 94.779 90.3552 94.9859 90.3552H95.5033V91.7977H90.9504V90.3552H91.3643C91.5713 90.3552 91.7782 90.2522 91.9852 90.1491C92.1921 89.9431 92.2956 89.737 92.3991 89.3248L94.9859 81.9062H98.6075L100.884 89.3248C101.091 89.84 101.194 90.1491 101.298 90.2522C101.401 90.3552 101.608 90.3552 101.919 90.3552H102.436V91.7977H96.4346ZM96.745 87.2641L95.8137 84.2761L95.0894 87.2641H96.745Z" fill="white"/>
<path d="M102.54 88.1915H103.988C104.195 88.9127 104.609 89.5309 105.127 89.9431C105.644 90.3552 106.265 90.5613 107.093 90.5613C107.506 90.5613 107.92 90.4582 108.127 90.2522C108.438 90.0461 108.541 89.84 108.541 89.5309C108.541 89.0157 107.92 88.7066 106.782 88.2945C106.368 88.1915 106.058 88.0884 105.851 88.0884C105.127 87.8823 104.609 87.6763 104.195 87.5732C103.781 87.4702 103.574 87.2641 103.368 87.1611C102.954 86.852 102.643 86.5429 102.436 86.1307C102.436 85.8216 102.333 85.4095 102.333 84.9973C102.333 83.967 102.747 83.2457 103.471 82.6275C104.195 82.0093 105.23 81.7002 106.368 81.7002C106.989 81.7002 107.506 81.8032 108.127 81.9063C108.645 82.0093 109.162 82.2154 109.679 82.4214L109.99 81.9063H111.438V85.3065H109.576C109.369 84.5852 109.059 84.07 108.645 83.7609C108.231 83.4518 107.61 83.2457 106.886 83.2457C106.472 83.2457 106.058 83.3488 105.747 83.5548C105.437 83.7609 105.334 83.967 105.334 84.2761C105.334 84.6882 105.851 84.9973 106.989 85.3065C107.3 85.4095 107.506 85.4095 107.61 85.4095C109.162 85.7186 110.197 86.2338 110.818 86.749C111.438 87.2641 111.749 87.9854 111.749 88.9127C111.749 89.9431 111.335 90.6643 110.611 91.2825C109.886 91.9007 108.852 92.2099 107.506 92.2099C106.886 92.2099 106.368 92.1068 105.851 92.0038C105.334 91.9007 104.816 91.6947 104.195 91.3856L103.781 91.9007H102.436V88.1915H102.54Z" fill="white"/>
<path d="M112.887 88.1915H114.336C114.542 88.9127 114.956 89.5309 115.474 89.9431C115.991 90.3552 116.612 90.5613 117.44 90.5613C117.854 90.5613 118.268 90.4582 118.474 90.2522C118.785 90.0461 118.888 89.84 118.888 89.5309C118.888 89.0157 118.268 88.7066 117.129 88.2945C116.715 88.1915 116.405 88.0884 116.198 88.0884C115.474 87.8823 114.956 87.6763 114.542 87.5732C114.129 87.4702 113.922 87.2641 113.715 87.1611C113.301 86.852 112.99 86.5429 112.783 86.1307C112.783 85.8216 112.68 85.4095 112.68 84.9973C112.68 83.967 113.094 83.2457 113.818 82.6275C114.542 82.0093 115.577 81.7002 116.715 81.7002C117.336 81.7002 117.854 81.8032 118.474 81.9063C118.992 82.0093 119.509 82.2154 120.027 82.4214L120.337 81.9063H121.786V85.3065H120.13C119.923 84.5852 119.613 84.07 119.199 83.7609C118.785 83.4518 118.164 83.2457 117.44 83.2457C117.026 83.2457 116.612 83.3488 116.302 83.5548C115.888 83.7609 115.784 83.967 115.784 84.2761C115.784 84.6882 116.302 84.9973 117.44 85.3065C117.75 85.4095 117.957 85.4095 118.061 85.4095C119.613 85.7186 120.647 86.2338 121.268 86.749C121.889 87.2641 122.2 87.9854 122.2 88.9127C122.2 89.9431 121.786 90.6643 121.061 91.2825C120.337 91.9007 119.302 92.2099 117.957 92.2099C117.336 92.2099 116.819 92.1068 116.302 92.0038C115.784 91.9007 115.267 91.6947 114.646 91.3856L114.232 91.9007H112.887V88.1915Z" fill="white"/>
<path d="M127.581 91.7977V90.3552H127.995C128.409 90.3552 128.616 90.3552 128.719 90.2522C128.823 90.2522 128.823 90.1491 128.823 90.0461C128.823 89.9431 128.823 89.9431 128.823 89.84C128.823 89.737 128.823 89.737 128.823 89.634L128.512 88.6036H125.822L125.511 89.5309C125.408 89.634 125.408 89.737 125.408 89.84C125.408 89.9431 125.408 90.0461 125.408 90.0461C125.408 90.1491 125.511 90.1491 125.615 90.2522C125.718 90.2522 125.925 90.3552 126.132 90.3552H126.65V91.7977H122.2V90.3552H122.614C122.821 90.3552 123.028 90.2522 123.235 90.1491C123.442 89.9431 123.545 89.737 123.649 89.3248L126.236 81.9062H129.857L132.134 89.3248C132.341 89.84 132.444 90.1491 132.548 90.2522C132.651 90.3552 132.858 90.3552 133.168 90.3552H133.686V91.7977H127.581ZM127.891 87.2641L126.96 84.2761L126.132 87.2641H127.891Z" fill="white"/>
<path d="M29.7975 126.418V105.501C29.7975 104.059 29.5906 103.132 29.2801 102.719C28.8662 102.41 28.0385 102.204 26.6933 102.204H24.7273V96.8464H51.2166C55.8729 96.8464 59.391 97.6707 61.6674 99.2163C63.9439 100.762 65.0821 103.132 65.0821 106.326C65.0821 108.489 64.3577 110.241 62.9091 111.787C61.4605 113.229 59.4945 114.26 56.9076 114.775C59.4945 115.084 61.2535 115.908 62.1848 117.145C63.1161 118.381 63.53 121.369 63.53 125.903C63.53 127.242 63.6334 128.272 63.8404 128.788C64.0473 129.303 64.4612 129.612 64.9786 129.612C65.496 129.612 65.9099 129.303 66.1168 128.685C66.3237 128.066 66.5307 127.036 66.5307 125.696C66.5307 125.593 66.5307 125.387 66.5307 125.078C66.5307 124.769 66.5307 124.563 66.5307 124.46H70.4627C70.4627 124.666 70.4627 124.872 70.4627 125.181C70.4627 125.49 70.4627 125.8 70.4627 125.903C70.4627 129.509 69.7384 132.085 68.2897 133.63C66.8411 135.279 64.4612 136 61.1501 136C57.632 136 55.1486 135.279 53.493 133.836C51.9409 132.394 51.1131 130.127 51.1131 126.933V123.739C51.1131 121.163 50.8027 119.514 50.0784 118.896C49.354 118.175 48.0089 117.866 45.8359 117.866H42.4213V126.418C42.4213 127.86 42.6283 128.788 43.0422 129.2C43.456 129.509 44.2838 129.715 45.629 129.715H47.8019V135.176H24.7273V129.715H26.6933C28.0385 129.715 28.8662 129.509 29.2801 129.2C29.5906 128.788 29.7975 127.86 29.7975 126.418ZM42.4213 112.611H45.7325C48.1124 112.611 49.7679 112.199 50.6992 111.478C51.6305 110.756 52.1478 109.417 52.1478 107.665C52.1478 105.708 51.7339 104.368 50.8027 103.647C49.8714 102.823 48.3193 102.513 46.1464 102.513H42.4213V112.611Z" fill="white"/>
<path d="M111.956 96.8464V111.065H105.851C105.437 109.211 105.023 107.768 104.609 106.738C104.195 105.708 103.678 104.883 102.954 104.265C102.229 103.544 101.298 103.029 100.263 102.719C99.2286 102.41 97.573 102.307 95.1931 102.307H94.0549H89.0881V112.817H90.5368C92.2958 112.817 93.5375 112.405 94.1584 111.581C94.8827 110.756 95.1931 109.211 95.1931 107.15V106.841H99.9529V124.254H95.1931C95.0896 121.575 94.7792 119.823 94.1584 118.999C93.5375 118.175 92.2958 117.763 90.5368 117.763H88.9847V129.715H95.8139C98.4008 129.715 100.263 129.509 101.298 129.2C102.333 128.891 103.057 128.375 103.574 127.551C104.195 126.624 104.609 125.49 105.023 124.254C105.334 122.915 105.644 121.266 105.747 119.308H112.059V135.073H71.6011V129.612H73.5671C74.8088 129.612 75.6365 129.509 76.0504 129.2C76.4643 128.891 76.6713 128.066 76.6713 126.624V126.315V105.501C76.6713 104.059 76.4643 103.132 76.1539 102.719C75.74 102.41 74.9122 102.204 73.5671 102.204H71.7046V96.8464H111.956Z" fill="white"/>
<path d="M139.272 96.8464V102.204H137.41C136.065 102.204 135.134 102.41 134.72 102.719C134.306 103.132 134.099 103.956 134.099 105.398V126.315C134.099 127.757 134.306 128.685 134.72 129.097C135.134 129.509 135.961 129.612 137.306 129.612H139.169V135.073H116.405V129.612H118.267C119.612 129.612 120.44 129.406 120.854 129.097C121.268 128.685 121.475 127.86 121.475 126.315V105.501C121.475 104.059 121.268 103.132 120.854 102.823C120.44 102.41 119.612 102.307 118.267 102.307H116.405V96.9495H139.272V96.8464Z" fill="white"/>
<defs>
<linearGradient id="paint0_linear" x1="52.8476" y1="75.3083" x2="111.224" y2="75.3083" gradientUnits="userSpaceOnUse">
<stop offset="4.93954e-07" stop-color="#FFF800"/>
<stop offset="1" stop-color="#FFC815"/>
</linearGradient>
<linearGradient id="paint1_linear" x1="52.8476" y1="68.2144" x2="111.224" y2="68.2144" gradientUnits="userSpaceOnUse">
<stop offset="4.93954e-07" stop-color="#FFF800"/>
<stop offset="1" stop-color="#FFC815"/>
</linearGradient>
<linearGradient id="paint2_linear" x1="113.549" y1="38.9665" x2="113.675" y2="38.9665" gradientUnits="userSpaceOnUse">
<stop offset="4.93954e-07" stop-color="#FFF800"/>
<stop offset="1" stop-color="#FFC815"/>
</linearGradient>
<linearGradient id="paint3_linear" x1="46.5469" y1="43.2353" x2="117.71" y2="43.2353" gradientUnits="userSpaceOnUse">
<stop offset="4.93954e-07" stop-color="#FFF800"/>
<stop offset="1" stop-color="#FFC815"/>
</linearGradient>
</defs>
</svg>
