<svg width="96" height="96" viewBox="0 0 96 96" fill="none" xmlns="http://www.w3.org/2000/svg">
<path d="M47.1071 86.8552C64.0129 86.8552 77.7177 85.7841 77.7177 84.4629C77.7177 83.1416 64.0129 82.0706 47.1071 82.0706C30.2014 82.0706 16.4966 83.1416 16.4966 84.4629C16.4966 85.7841 30.2014 86.8552 47.1071 86.8552Z" fill="#F5F5F5"/>
<path d="M76.2068 31.0253L72.1153 43.7894C72.0686 43.9358 71.9847 44.0675 71.8718 44.1717C71.759 44.2759 71.621 44.349 71.4714 44.3838C71.3218 44.4186 71.1657 44.414 71.0184 44.3704C70.8711 44.3268 70.7376 44.2457 70.6311 44.135L68.5038 41.9328C68.343 41.7673 68.1243 41.6705 67.8937 41.663C67.663 41.6555 67.4385 41.7378 67.2673 41.8925L49.5015 58.0205C49.3429 58.1643 49.1376 58.2461 48.9235 58.2507C48.7093 58.2552 48.5008 58.1824 48.3361 58.0454L37.0561 48.6662C36.893 48.5321 36.6876 48.4604 36.4766 48.464C36.2655 48.4675 36.0626 48.546 35.9041 48.6854L13.7454 68.3232L14.5863 60.4512C14.6079 60.229 14.7129 60.0232 14.8801 59.8752L35.7908 41.3434C35.9497 41.2045 36.1527 41.1266 36.3636 41.1234C36.5746 41.1203 36.7798 41.1921 36.9428 41.3261L48.1767 50.688C48.3414 50.8249 48.55 50.8978 48.7641 50.8932C48.9782 50.8886 49.1835 50.8069 49.3422 50.663L63.3582 37.9315C63.4463 37.8515 63.5174 37.7547 63.5674 37.6466C63.6173 37.5386 63.6449 37.4216 63.6487 37.3026C63.6525 37.1837 63.6322 37.0652 63.5893 36.9542C63.5463 36.8432 63.4814 36.742 63.3985 36.6566L61.3057 34.4794C61.1962 34.3663 61.1188 34.2262 61.0812 34.0734C61.0436 33.9206 61.0473 33.7606 61.0918 33.6096C61.1363 33.4587 61.2201 33.3223 61.3346 33.2144C61.4491 33.1064 61.5902 33.0308 61.7434 32.9952L75.1604 29.8886C75.3134 29.8528 75.4732 29.8582 75.6235 29.9044C75.7737 29.9506 75.909 30.0359 76.0154 30.1515C76.1219 30.2671 76.1957 30.409 76.2293 30.5625C76.2629 30.716 76.2552 30.8757 76.2068 31.0253Z" fill="#A8FF4D"/>
<path opacity="0.1" d="M76.201 31.046L72.123 43.7756C72.075 43.9238 71.9895 44.0571 71.8748 44.1624C71.76 44.2678 71.62 44.3416 71.4682 44.3768C71.3165 44.412 71.1582 44.4073 71.0089 44.3632C70.8595 44.3191 70.7241 44.237 70.6158 44.1251L68.5038 41.9478C68.3407 41.7794 68.1187 41.6809 67.8845 41.673C67.6502 41.6651 67.4221 41.7485 67.2481 41.9055L49.5015 58.0201C49.3264 58.18 49.0952 58.2642 48.8583 58.2544C48.6597 58.248 48.469 58.1749 48.3169 58.047L37.0618 48.6793C36.8955 48.5428 36.6863 48.4697 36.4712 48.4729C36.2561 48.476 36.049 48.5553 35.8868 48.6966L13.7454 68.3228L14.6228 60.1187L35.7831 41.366C35.945 41.224 36.1521 41.1443 36.3675 41.1411C36.5828 41.1379 36.7922 41.2115 36.9582 41.3487L41.7409 45.3289L48.1671 50.6876C48.3346 50.8258 48.5461 50.8993 48.7631 50.8947C48.9802 50.8902 49.1884 50.8078 49.3498 50.6627L63.3601 37.9388C63.4499 37.8579 63.5224 37.7596 63.5733 37.65C63.6243 37.5404 63.6525 37.4216 63.6565 37.3008C63.6604 37.1799 63.6399 37.0596 63.5963 36.9468C63.5526 36.8341 63.4866 36.7314 63.4023 36.6447L61.3268 34.4963C61.2161 34.3814 61.1378 34.2392 61.0999 34.0842C61.062 33.9292 61.0659 33.7669 61.1112 33.6139C61.1565 33.4609 61.2415 33.3226 61.3576 33.2132C61.4738 33.1038 61.6168 33.0271 61.7722 32.991L75.1431 29.8921C75.2981 29.8573 75.4595 29.8639 75.611 29.9114C75.7626 29.959 75.8989 30.0456 76.0063 30.1627C76.1136 30.2798 76.1881 30.4231 76.2223 30.5782C76.2565 30.7333 76.2492 30.8947 76.201 31.046Z" fill="black"/>
<path d="M53.0516 78.9197H36.6721V82.6368H53.0516V78.9197Z" fill="#A8FF4D"/>
<path opacity="0.2" d="M38.7458 78.9197H38.3022V82.6368H38.7458V78.9197Z" fill="black"/>
<path opacity="0.2" d="M41.0248 78.9197H40.5813V82.6368H41.0248V78.9197Z" fill="black"/>
<path opacity="0.2" d="M43.3019 82.6368H42.8584V78.9197L43.3019 78.985V82.6368Z" fill="black"/>
<path opacity="0.2" d="M45.581 78.9197H45.1375V82.6368H45.581V78.9197Z" fill="black"/>
<path opacity="0.2" d="M47.86 78.9197H47.4165V82.6368H47.86V78.9197Z" fill="black"/>
<path opacity="0.2" d="M50.1371 78.9197H49.6936V82.6368H50.1371V78.9197Z" fill="black"/>
<path opacity="0.2" d="M52.4162 78.9197H51.9727V82.6368H52.4162V78.9197Z" fill="black"/>
<path opacity="0.09" d="M53.0516 78.9197H36.6721V79.6858H53.0516V78.9197Z" fill="black"/>
<path d="M55.6053 75.2007H39.2258V78.9178H55.6053V75.2007Z" fill="#A8FF4D"/>
<path opacity="0.2" d="M41.2992 75.2007H40.8557V78.9178H41.2992V75.2007Z" fill="black"/>
<path opacity="0.2" d="M43.5783 75.2007H43.1348V78.9178H43.5783V75.2007Z" fill="black"/>
<path opacity="0.2" d="M45.8573 75.2007H45.4138V78.9178H45.8573V75.2007Z" fill="black"/>
<path opacity="0.2" d="M48.1344 75.2007H47.6909V78.9178H48.1344V75.2007Z" fill="black"/>
<path opacity="0.2" d="M50.4135 75.2007H49.97V78.9178H50.4135V75.2007Z" fill="black"/>
<path opacity="0.2" d="M52.6906 75.2007H52.2471V78.9178H52.6906V75.2007Z" fill="black"/>
<path opacity="0.2" d="M54.9696 75.2007H54.5261V78.9178H54.9696V75.2007Z" fill="black"/>
<path opacity="0.09" d="M55.6053 75.2007H39.2258V75.9668H55.6053V75.2007Z" fill="black"/>
<path d="M53.328 71.4834H36.9485V75.2005H53.328V71.4834Z" fill="#A8FF4D"/>
<path opacity="0.2" d="M39.0221 71.4834H38.5786V75.2005H39.0221V71.4834Z" fill="black"/>
<path opacity="0.2" d="M41.2992 75.2025H40.8557V71.4872L41.2992 71.4834V75.2025Z" fill="black"/>
<path opacity="0.2" d="M43.5783 71.4834H43.1348V75.2005H43.5783V71.4834Z" fill="black"/>
<path opacity="0.2" d="M45.8573 71.4834H45.4138V75.2005H45.8573V71.4834Z" fill="black"/>
<path opacity="0.2" d="M48.1344 75.2025H47.6909V71.4834L48.1344 71.4872V75.2025Z" fill="black"/>
<path opacity="0.2" d="M50.4135 71.4834H49.97V75.2005H50.4135V71.4834Z" fill="black"/>
<path opacity="0.2" d="M52.6906 71.4834H52.2471V75.2005H52.6906V71.4834Z" fill="black"/>
<path opacity="0.09" d="M53.328 71.4834H36.9485V72.3992H53.328V71.4834Z" fill="black"/>
<path d="M55.6053 67.7683H39.2258V71.4854H55.6053V67.7683Z" fill="#A8FF4D"/>
<path opacity="0.2" d="M41.2992 67.7683H40.8557V71.4854H41.2992V67.7683Z" fill="black"/>
<path opacity="0.2" d="M43.5783 67.7683H43.1348V71.4854H43.5783V67.7683Z" fill="black"/>
<path opacity="0.2" d="M45.8573 67.7683H45.4138V71.4854H45.8573V67.7683Z" fill="black"/>
<path opacity="0.2" d="M48.1344 67.7683H47.6909V71.4854H48.1344V67.7683Z" fill="black"/>
<path opacity="0.2" d="M50.4135 67.7683H49.97V71.4854H50.4135V67.7683Z" fill="black"/>
<path opacity="0.2" d="M52.6906 71.4835L52.2471 71.4874V67.7683L52.6906 67.8355V71.4835Z" fill="black"/>
<path opacity="0.2" d="M54.9696 67.7683H54.5261V71.4854H54.9696V67.7683Z" fill="black"/>
<path opacity="0.09" d="M55.6053 67.7683H39.2258V68.5344H55.6053V67.7683Z" fill="black"/>
<path d="M56.3253 64.051H39.9458V67.7681H56.3253V64.051Z" fill="#A8FF4D"/>
<path opacity="0.2" d="M42.0192 64.051H41.5757V67.7681H42.0192V64.051Z" fill="black"/>
<path opacity="0.2" d="M44.2963 64.051H43.8528V67.7681H44.2963V64.051Z" fill="black"/>
<path opacity="0.2" d="M46.5754 64.051H46.1318V67.7681H46.5754V64.051Z" fill="black"/>
<path opacity="0.2" d="M48.8544 64.051H48.4109V67.7681H48.8544V64.051Z" fill="black"/>
<path opacity="0.2" d="M51.1315 64.051H50.688V67.7681H51.1315V64.051Z" fill="black"/>
<path opacity="0.2" d="M53.4106 64.051H52.967V67.7681H53.4106V64.051Z" fill="black"/>
<path opacity="0.2" d="M55.6877 64.051H55.2441V67.7681H55.6877V64.051Z" fill="black"/>
<path opacity="0.09" d="M56.3253 64.051H39.9458V64.8171H56.3253V64.051Z" fill="black"/>
<path d="M54.3763 60.334H37.9968V64.0511H54.3763V60.334Z" fill="#A8FF4D"/>
<path opacity="0.2" d="M40.0705 60.334H39.627V64.0511H40.0705V60.334Z" fill="black"/>
<path opacity="0.2" d="M42.3495 60.334H41.906V64.0511H42.3495V60.334Z" fill="black"/>
<path opacity="0.2" d="M44.6266 60.334H44.1831V64.0511H44.6266V60.334Z" fill="black"/>
<path opacity="0.2" d="M46.9057 60.334H46.4622V64.0511H46.9057V60.334Z" fill="black"/>
<path opacity="0.2" d="M49.1828 60.334H48.7393V64.0511H49.1828V60.334Z" fill="black"/>
<path opacity="0.2" d="M51.4618 60.334H51.0183V64.0511H51.4618V60.334Z" fill="black"/>
<path opacity="0.2" d="M53.7409 60.334H53.2974V64.0511H53.7409V60.334Z" fill="black"/>
<path opacity="0.09" d="M54.3763 60.334H37.9968V61.1001H54.3763V60.334Z" fill="black"/>
<path d="M32.5709 78.9751H16.1914V82.6922H32.5709V78.9751Z" fill="#A8FF4D"/>
<path opacity="0.2" d="M18.2651 78.9751H17.8215V82.6922H18.2651V78.9751Z" fill="black"/>
<path opacity="0.2" d="M20.5441 78.9751H20.1006V82.6922H20.5441V78.9751Z" fill="black"/>
<path opacity="0.2" d="M22.8232 78.9751H22.3796V82.6922H22.8232V78.9751Z" fill="black"/>
<path opacity="0.2" d="M25.1003 78.9751H24.6567V82.6922H25.1003V78.9751Z" fill="black"/>
<path opacity="0.2" d="M27.3793 78.9751H26.9358V82.6922H27.3793V78.9751Z" fill="black"/>
<path opacity="0.2" d="M29.6564 78.9751H29.2129V82.6922H29.6564V78.9751Z" fill="black"/>
<path opacity="0.2" d="M31.9355 78.9751H31.4919V82.6922H31.9355V78.9751Z" fill="black"/>
<path opacity="0.09" d="M32.5709 78.9751H16.1914V79.7412H32.5709V78.9751Z" fill="black"/>
<path d="M33.3446 75.2583H16.9651V78.9754H33.3446V75.2583Z" fill="#A8FF4D"/>
<path opacity="0.2" d="M19.0387 75.2583H18.5952V78.9754H19.0387V75.2583Z" fill="black"/>
<path opacity="0.2" d="M21.3178 75.2583H20.8743V78.9754H21.3178V75.2583Z" fill="black"/>
<path opacity="0.2" d="M23.5949 75.2583H23.1514V78.9754H23.5949V75.2583Z" fill="black"/>
<path opacity="0.2" d="M25.8739 75.2583H25.4304V78.9754H25.8739V75.2583Z" fill="black"/>
<path opacity="0.2" d="M28.151 75.2583H27.7075V78.9754H28.151V75.2583Z" fill="black"/>
<path opacity="0.2" d="M30.4301 75.2583H29.9866V78.9754H30.4301V75.2583Z" fill="black"/>
<path opacity="0.2" d="M32.7091 75.2583H32.2656V78.9754H32.7091V75.2583Z" fill="black"/>
<path opacity="0.09" d="M33.3446 75.2583H16.9651V75.9591H33.3446V75.2583Z" fill="black"/>
<path d="M32.3405 71.5391H15.9609V75.2562H32.3405V71.5391Z" fill="#A8FF4D"/>
<path opacity="0.2" d="M18.0346 71.5391H17.5911V75.2562H18.0346V71.5391Z" fill="black"/>
<path opacity="0.2" d="M20.3136 71.5391H19.8701V75.2562H20.3136V71.5391Z" fill="black"/>
<path opacity="0.2" d="M22.5907 71.5391H22.1472V75.2562H22.5907V71.5391Z" fill="black"/>
<path opacity="0.2" d="M24.8698 71.5391H24.4263V75.2562H24.8698V71.5391Z" fill="black"/>
<path opacity="0.2" d="M27.1488 71.5391H26.7053V75.2562H27.1488V71.5391Z" fill="black"/>
<path opacity="0.2" d="M29.4259 71.5391H28.9824V75.2562H29.4259V71.5391Z" fill="black"/>
<path opacity="0.2" d="M31.705 71.5391H31.2615V75.2562H31.705V71.5391Z" fill="black"/>
<path opacity="0.09" d="M32.3405 71.5391H15.9609V72.2399H32.3405V71.5391Z" fill="black"/>
<path d="M68.3214 69.675H64.7329V82.7925H68.3214V69.675Z" fill="#A8FF4D"/>
<g opacity="0.4">
<path opacity="0.4" d="M68.3214 73.1655V75.8324L64.7329 79.4209V76.5524L68.3214 73.1655Z" fill="white"/>
<path opacity="0.4" d="M68.3214 71.2148V71.668L64.7329 75.2584V74.8053L68.3214 71.2148Z" fill="white"/>
</g>
<path d="M72.7393 73.9009H69.1509V82.7924H72.7393V73.9009Z" fill="#A8FF4D"/>
<g opacity="0.4">
<path opacity="0.4" d="M72.7393 76.5215V79.1615L69.1509 82.748V79.9103L72.7393 76.5215Z" fill="white"/>
<path opacity="0.4" d="M72.7393 75.2773V75.7842L69.1509 79.3746V78.8639L72.7393 75.2773Z" fill="white"/>
</g>
<path d="M63.9015 63.3713H60.313V82.7921H63.9015V63.3713Z" fill="#A8FF4D"/>
<g opacity="0.4">
<path opacity="0.4" d="M63.9034 67.0176V69.671L60.313 73.2595V70.4064L63.9034 67.0176Z" fill="white"/>
<path opacity="0.4" d="M63.9034 65.5583V66.0537L60.313 69.646V69.1468L63.9034 65.5583Z" fill="white"/>
</g>
<path d="M62.5441 64.996C62.4901 65.0824 62.4118 65.1508 62.319 65.1927C62.2262 65.2345 62.123 65.2478 62.0226 65.231C61.9222 65.2142 61.829 65.168 61.7549 65.0982C61.6808 65.0285 61.629 64.9383 61.6061 64.839C61.5833 64.7398 61.5904 64.6361 61.6265 64.5409C61.6627 64.4457 61.7262 64.3634 61.8092 64.3044C61.8921 64.2453 61.9907 64.2122 62.0925 64.2092C62.1942 64.2062 62.2946 64.2335 62.3809 64.2876C62.4959 64.3603 62.5777 64.4755 62.6082 64.6082C62.6388 64.7409 62.6157 64.8803 62.5441 64.996Z" fill="#263238"/>
<path d="M66.9621 71.232C66.9082 71.3177 66.83 71.3855 66.7376 71.4269C66.6452 71.4682 66.5425 71.4813 66.4427 71.4644C66.3428 71.4475 66.2502 71.4014 66.1766 71.3319C66.1029 71.2624 66.0514 71.1727 66.0287 71.074C66.006 70.9753 66.013 70.8721 66.0488 70.7774C66.0847 70.6827 66.1478 70.6007 66.2302 70.5419C66.3126 70.483 66.4106 70.4498 66.5118 70.4466C66.613 70.4433 66.7129 70.4701 66.7989 70.5236C66.8563 70.5592 66.9061 70.6059 66.9453 70.6609C66.9846 70.7158 67.0127 70.778 67.0278 70.8439C67.043 70.9097 67.045 70.9779 67.0337 71.0445C67.0224 71.1111 66.9981 71.1749 66.9621 71.232Z" fill="#263238"/>
<path d="M71.38 75.456C71.3262 75.542 71.2482 75.6101 71.1558 75.6517C71.0633 75.6933 70.9606 75.7066 70.8606 75.6899C70.7606 75.6732 70.6679 75.6272 70.594 75.5577C70.5202 75.4882 70.4686 75.3984 70.4458 75.2997C70.423 75.2009 70.4299 75.0975 70.4658 75.0027C70.5017 74.9079 70.5649 74.8259 70.6475 74.767C70.73 74.7081 70.8281 74.675 70.9295 74.6719C71.0308 74.6687 71.1308 74.6957 71.2168 74.7494C71.2741 74.7849 71.3238 74.8314 71.3631 74.8862C71.4023 74.941 71.4303 75.003 71.4455 75.0687C71.4607 75.1344 71.4627 75.2025 71.4515 75.2689C71.4402 75.3354 71.4159 75.399 71.38 75.456Z" fill="#263238"/>
<path d="M70.9459 75.1795L66.3917 79.4207L66.5261 70.9593L62.1082 73.6915V64.7231" stroke="#263238" stroke-miterlimit="10"/>
<path d="M29.8406 41.1421C29.8406 41.1421 28.6176 42.9469 28.3315 43.1331C28.0454 43.3194 24.1843 42.5859 22.2893 41.5971L21.312 40.3722L19.8374 39.8538L18.9907 41.5357L20.16 42.3037C20.16 42.3037 20.9088 43.1658 21.7478 42.9258C21.7478 42.9258 24.7661 44.8957 26.9318 45.3987C29.0976 45.9018 29.5987 45.32 30.2304 44.8054C30.8621 44.2909 32.5344 41.8506 32.5344 41.8506L29.8406 41.1421Z" fill="#B55B52"/>
<path d="M41.447 33.5502C41.447 33.5502 46.2777 32.0756 47.9136 30.8526C47.9136 30.8526 50.3962 27.8152 50.809 24.5723L50.2502 22.8846L50.5459 20.9646L52.3853 21.3755C52.3853 21.3755 53.3453 23.3953 52.176 24.9774C52.176 24.9774 51.863 29.6776 49.872 32.1275C47.8809 34.5774 41.6525 36.2152 41.6525 36.2152L41.447 33.5502Z" fill="#B55B52"/>
<path d="M43.1788 51.3007L42.7833 37.0927L45.8879 35.6085L43.893 32.0488C43.893 32.0488 41.4719 32.7592 39.3753 32.7592C36.5893 32.7592 33.7861 34.8712 32.2713 35.4703C30.7564 36.0693 29.0745 41.2207 29.0745 41.2207L32.5765 43.0965L33.2332 41.165C33.2332 41.165 34.1759 48.3035 34.1797 51.4351L43.1788 51.3007Z" fill="#A8FF4D"/>
<path opacity="0.1" d="M43.1788 51.3007L42.7833 37.0927L45.8879 35.6085L43.893 32.0488C43.893 32.0488 41.4719 32.7592 39.3753 32.7592C36.5893 32.7592 33.7861 34.8712 32.2713 35.4703C30.7564 36.0693 29.0745 41.2207 29.0745 41.2207L32.5765 43.0965L33.2332 41.165C33.2332 41.165 34.1759 48.3035 34.1797 51.4351L43.1788 51.3007Z" fill="white"/>
<path d="M36.096 31.4632C36.096 31.4632 33.6711 31.7167 33.2314 29.7871C33.2314 29.7871 31.7837 29.2111 32.8128 27.7826C32.8128 27.7826 31.4804 25.7992 33.1815 25.2098C33.414 24.65 33.7768 24.1539 34.2396 23.7625C34.7024 23.3711 35.252 23.0959 35.8426 22.9595C37.2192 22.6216 36.8295 23.3608 36.8295 23.3608C36.8295 23.3608 39.6845 22.2568 40.0935 23.4875C40.5024 24.7183 38.2791 25.2635 38.2791 25.2635L36.096 31.4632Z" fill="#263238"/>
<path d="M37.6052 31.104C37.6123 31.2193 37.6264 31.3341 37.6475 31.4477C37.7454 32.0237 38.1409 32.9414 39.1009 33.2448C39.1009 33.2448 39.2334 34.2701 37.6475 34.0934C36.0615 33.9168 35.307 33.6345 35.307 33.6345C35.5499 32.3941 35.5342 31.1169 35.2609 29.8829C35.2609 29.8829 34.3662 30.0326 33.8612 29.5219C33.3563 29.0112 33.5387 27.719 35.1188 28.4505C35.1188 28.4505 35.4606 26.567 34.3508 26.0006C34.3508 26.0006 36.5243 26.3155 38.2619 25.2576C38.2619 25.2576 39.7614 27.1776 39.5521 29.0112C39.3428 30.8448 37.6052 31.104 37.6052 31.104Z" fill="#B55B52"/>
<path d="M37.9909 28.8905C37.9909 28.8905 37.4264 29.2572 36.7832 28.7273" stroke="#263238" stroke-width="0.722314" stroke-linecap="round" stroke-linejoin="round"/>
<path d="M36.6721 27.3064C36.7066 27.4466 36.8046 27.5425 36.891 27.5214C36.9774 27.5003 37.0196 27.3698 36.9851 27.2296C36.9505 27.0894 36.8526 26.9915 36.7662 27.0126C36.6798 27.0338 36.6279 27.1662 36.6721 27.3064Z" fill="#263238"/>
<path d="M38.1793 26.7437C38.2139 26.8858 38.3118 26.9818 38.3982 26.9607C38.4846 26.9396 38.5268 26.8071 38.4923 26.6669C38.4577 26.5268 38.3598 26.4308 38.2734 26.4519C38.187 26.473 38.1447 26.6036 38.1793 26.7437Z" fill="#263238"/>
<path d="M36.5722 26.2869C36.4425 26.3226 36.3268 26.3968 36.2401 26.4996C36.1534 26.6024 36.0998 26.729 36.0864 26.8629" stroke="#263238" stroke-width="0.963085" stroke-linecap="round" stroke-linejoin="round"/>
<path d="M38.6207 25.7992C38.6207 25.7992 38.279 25.5438 37.9775 25.7627" stroke="#263238" stroke-width="0.963085" stroke-linecap="round" stroke-linejoin="round"/>
<path d="M38.2233 28.1762L37.8662 26.9993L38.8723 27.8364C38.818 27.9577 38.7245 28.0572 38.6068 28.1189C38.489 28.1806 38.354 28.2008 38.2233 28.1762Z" fill="#A02724"/>
<path opacity="0.19" d="M37.6473 31.4536C37.5026 31.4799 37.3539 31.4751 37.2112 31.4393C37.0685 31.4035 36.935 31.3377 36.8198 31.2462C37.1136 31.2155 37.6051 31.1099 37.6051 31.1099C37.6122 31.2252 37.6263 31.3399 37.6473 31.4536Z" fill="black"/>
<path d="M38.4998 34.1204L38.4902 35.9598L37.5878 36.0423C37.5878 36.0423 36.8986 35.3665 36.8544 35.0132C36.8102 34.6599 37.847 33.7326 38.4998 34.1204Z" fill="#263238"/>
<path d="M38.3598 35.7715C38.3598 35.7715 39.7153 40.7635 40.3662 43.2595L39.6251 44.736L38.377 43.4899L37.7031 35.854L38.3598 35.7715Z" fill="#263238"/>
<path d="M44.5593 81.0242L41.8098 81.4562C41.8098 81.4562 40.9631 70.9518 40.7461 67.012C40.7097 66.3304 40.6405 65.6046 40.5541 64.8674C40.1279 61.3307 39.2562 57.5502 39.2562 57.5502C39.2562 57.5502 38.9721 63.8574 38.1849 68.6862C37.3977 73.515 34.0665 80.5902 34.0665 80.5902L31.4514 79.3864C33.4943 73.5419 33.9628 66.2632 34.1394 63.5406C34.3161 60.8181 34.1164 49.6206 34.1164 49.6206L43.1212 49.2271C43.9909 53.4664 45.1218 63.1566 45.2466 66.507C45.3714 69.8574 44.5593 81.0242 44.5593 81.0242Z" fill="#263238"/>
<path d="M44.0716 81.8228L44.2175 84.0307L42.5913 84.3975L42.4204 81.9284L44.0716 81.8228Z" fill="#B55B52"/>
<path d="M44.9971 80.6631L41.5161 81.337L41.687 82.418L44.9318 81.8285L44.9971 80.6631Z" fill="#A8FF4D"/>
<path d="M33.5039 80.8915L32.5439 82.9382L30.9983 82.3411L32.0293 80.208L33.5039 80.8915Z" fill="#B55B52"/>
<path d="M31.104 82.3682L32.9165 83.0825C32.9951 83.1128 33.06 83.1708 33.0989 83.2457C33.2371 83.5125 33.6153 84.1673 34.0685 84.4169C34.6445 84.7356 34.9497 84.9583 34.7424 85.2885C34.535 85.6188 34.2201 85.5055 33.8976 85.421C33.6345 85.3519 31.1558 84.3132 30.2496 83.9292C30.2082 83.9117 30.171 83.8853 30.1408 83.852C30.1106 83.8186 30.0881 83.7791 30.0747 83.7361C30.0614 83.6932 30.0576 83.6478 30.0636 83.6032C30.0695 83.5586 30.0852 83.5159 30.1094 83.478L30.7373 82.4911C30.7756 82.4322 30.8326 82.388 30.8992 82.3657C30.9658 82.3434 31.038 82.3443 31.104 82.3682Z" fill="#263238"/>
<path d="M42.5569 84.3131L44.4769 83.9291C44.5591 83.9133 44.6443 83.9276 44.7169 83.9694C44.978 84.1172 45.6481 84.4667 46.1646 84.4341C46.8193 84.3918 47.1975 84.4149 47.2014 84.8046C47.2052 85.1944 46.8788 85.2693 46.5601 85.371C46.3028 85.4536 43.6551 85.9144 42.6779 86.0833C42.6336 86.0912 42.5881 86.0893 42.5447 86.0776C42.5012 86.066 42.4609 86.045 42.4264 86.0161C42.392 85.9871 42.3644 85.951 42.3454 85.9102C42.3265 85.8694 42.3168 85.8249 42.3169 85.78V84.6088C42.3185 84.5399 42.3429 84.4734 42.3864 84.4199C42.4298 84.3664 42.4898 84.3288 42.5569 84.3131Z" fill="#263238"/>
<path d="M35.042 80.1427L31.3115 79.342L30.9832 80.423L34.3681 81.4176L35.042 80.1427Z" fill="#A8FF4D"/>
<path opacity="0.61" d="M40.5523 64.8961C40.1261 61.3614 39.2544 57.579 39.2544 57.579L38.8857 52.873C38.8857 52.873 40.967 61.0023 40.5523 64.8961Z" fill="black"/>
<path d="M35.4028 33.074C36.0861 33.5428 36.8455 33.8897 37.6473 34.0993L37.0559 35.8407C37.0559 35.8407 35.6102 35.1764 34.8767 34.5754L35.4028 33.074Z" fill="white"/>
<path d="M37.6475 34.0994L38.6209 35.6086C39.0669 34.9913 39.3897 34.2937 39.5713 33.5542L38.4769 32.7593C38.4769 32.7593 38.0161 33.7654 37.6475 34.0994Z" fill="white"/>
</svg>
