<svg width="72" height="53" viewBox="0 0 72 53" fill="none" xmlns="http://www.w3.org/2000/svg">
<path d="M64.3612 49.9722H6.00195V52.6511H64.3612V49.9722Z" fill="url(#paint0_linear)"/>
<path d="M6.00195 39.6689V48.6331H64.3612V39.6689H6.00195ZM10.1409 45.542C9.41659 45.542 8.79574 44.9238 8.79574 44.2025C8.79574 43.4813 9.41659 42.8631 10.1409 42.8631C10.8652 42.8631 11.4861 43.4813 11.4861 44.2025C11.5895 44.9238 10.9687 45.542 10.1409 45.542ZM18.5223 45.542C17.798 45.542 17.1771 44.9238 17.1771 44.2025C17.1771 43.4813 17.798 42.8631 18.5223 42.8631C19.2466 42.8631 19.8674 43.4813 19.8674 44.2025C19.8674 44.9238 19.2466 45.542 18.5223 45.542ZM26.8002 45.542C26.0759 45.542 25.455 44.9238 25.455 44.2025C25.455 43.4813 26.0759 42.8631 26.8002 42.8631C27.5245 42.8631 28.1453 43.4813 28.1453 44.2025C28.2488 44.9238 27.628 45.542 26.8002 45.542ZM35.1816 45.542C34.4572 45.542 33.8364 44.9238 33.8364 44.2025C33.8364 43.4813 34.4572 42.8631 35.1816 42.8631C35.9059 42.8631 36.5267 43.4813 36.5267 44.2025C36.5267 44.9238 35.9059 45.542 35.1816 45.542ZM43.4595 45.542C42.7352 45.542 42.1143 44.9238 42.1143 44.2025C42.1143 43.4813 42.7352 42.8631 43.4595 42.8631C44.1838 42.8631 44.8046 43.4813 44.8046 44.2025C44.9081 44.9238 44.2873 45.542 43.4595 45.542ZM51.8408 45.542C51.1165 45.542 50.4957 44.9238 50.4957 44.2025C50.4957 43.4813 51.1165 42.8631 51.8408 42.8631C52.5652 42.8631 53.186 43.4813 53.186 44.2025C53.186 44.9238 52.5652 45.542 51.8408 45.542ZM60.1187 45.542C59.3944 45.542 58.7736 44.9238 58.7736 44.2025C58.7736 43.4813 59.3944 42.8631 60.1187 42.8631C60.8431 42.8631 61.4639 43.4813 61.4639 44.2025C61.5674 44.9238 60.9465 45.542 60.1187 45.542Z" fill="url(#paint1_linear)"/>
<path d="M66.6367 15.0435C66.6367 14.9404 66.7402 14.9404 66.7402 14.8374L66.6367 15.0435Z" fill="url(#paint2_linear)"/>
<path d="M67.6718 8.75805C65.9128 8.75805 64.5676 10.2006 64.5676 11.8491C64.5676 12.9825 65.1885 13.9098 66.0163 14.5281C65.4989 15.3523 63.4294 18.5465 60.2217 21.3284C58.0488 22.874 54.5307 25.3468 51.7369 24.9347C50.7021 24.8317 49.7709 24.2134 48.9431 23.5952C47.391 22.5649 46.0458 21.3284 44.8041 19.989C39.6304 13.9098 36.5262 5.97608 36.5262 5.97608C37.6645 5.4609 38.4922 4.43054 38.4922 3.09108C38.4922 1.33947 37.0436 0 35.388 0C33.7324 0 32.2838 1.4425 32.2838 3.09108C32.2838 4.43054 33.1116 5.56394 34.2498 5.97608C34.2498 5.97608 31.1456 13.9098 25.9719 19.989C24.7302 21.3284 23.3851 22.5649 21.833 23.5952C21.0052 24.2134 20.0739 24.7286 19.0392 24.9347C16.2454 25.2438 12.7273 22.874 10.5543 21.3284C6.82927 18.0313 4.55284 14.322 4.55284 14.322C5.58758 13.8068 6.20843 12.7765 6.20843 11.54C6.20843 9.78841 4.75979 8.44894 3.10421 8.44894C1.44863 8.44894 0 9.89145 0 11.54C0 13.1886 1.44863 14.6311 3.10421 14.6311C3.31116 14.6311 3.51811 14.6311 3.82853 14.5281C4.03548 17.104 6.20843 38.3294 6.20843 38.3294H35.4915H64.7746C64.7746 38.3294 66.844 18.1343 67.1545 14.7341C67.3614 14.8372 67.6718 14.8372 67.9823 14.8372C69.7413 14.8372 71.0865 13.3947 71.0865 11.7461C71.0865 10.0975 69.4309 8.75805 67.6718 8.75805ZM3.62158 14.8372C3.62158 14.9402 3.72506 15.0432 3.72506 15.0432C3.72506 15.0432 3.62158 14.9402 3.62158 14.8372ZM13.6585 30.1895C13.4516 31.4259 12.8307 32.5593 11.8995 33.3836C11.3821 33.7958 10.8647 34.1049 10.2439 34.311C10.037 34.414 9.41611 34.414 9.31264 34.517C10.6578 33.0745 12.003 31.2199 11.6925 29.1592C11.5891 28.1288 11.0717 27.2015 10.3474 26.4802C9.72653 25.862 9.10569 25.3468 8.2779 24.9347C7.96748 24.7286 7.13969 24.1104 6.72579 24.1104C9.51959 23.8013 11.8995 25.1408 13.1412 27.7167C13.3481 28.1288 13.5551 28.5409 13.5551 29.0561C13.6585 29.4683 13.6585 29.7774 13.6585 30.1895ZM22.3503 32.8684C22.5573 32.4563 22.3503 31.1168 22.3503 30.7047C22.2469 30.0865 22.0399 29.5713 21.5225 29.2622C21.3156 29.1592 21.0052 29.0561 20.6948 29.0561C20.3843 29.0561 20.1774 29.1592 19.9704 29.3652C19.5565 29.6743 19.4531 30.0865 19.3496 30.6017C19.3496 30.9108 19.2461 32.6624 19.5565 32.8684C19.1426 32.5593 18.8322 31.9411 18.6253 31.4259C18.4183 30.9108 18.3149 30.1895 18.4183 29.6743C18.5218 29.1592 18.8322 28.747 19.1426 28.4379C19.9704 27.6136 21.3156 27.3045 22.3503 27.9227C23.0746 28.4379 23.3851 29.4683 23.3851 30.3956C23.0746 31.1168 22.7642 32.0442 22.3503 32.8684ZM39.8374 32.9715C39.32 33.4867 38.8027 33.8988 38.2853 34.2079C37.9749 34.414 37.2506 34.6201 37.1471 34.9292C38.5957 32.8685 40.0443 30.2926 39.9409 27.7167C39.9409 26.0681 39.0096 24.5225 37.7679 23.4922C37.0436 22.874 36.0089 22.4618 34.9741 22.5649C33.0081 22.7709 31.0421 25.0377 30.8352 26.9954C30.4213 29.8804 32.1803 32.7654 33.8359 35.0322C31.3525 33.7958 29.5935 31.632 29.0761 28.85C28.6622 26.2742 29.5935 23.4922 31.663 21.8436C33.5255 20.4011 36.6297 19.6799 38.5957 21.2254C40.2513 22.4618 41.3895 24.4195 41.8034 26.4802C42.3208 28.747 41.493 31.1168 39.8374 32.9715ZM51.0126 32.8684C51.2195 32.4563 51.0126 31.1168 51.0126 30.7047C50.9091 30.0865 50.7021 29.5713 50.1848 29.2622C49.9778 29.1592 49.6674 29.0561 49.357 29.0561C49.0466 29.0561 48.8396 29.1592 48.6327 29.3652C48.2188 29.6743 48.1153 30.0865 48.0118 30.6017C48.0118 30.9108 47.9083 32.6624 48.2188 32.8684C47.8049 32.5593 47.4945 31.9411 47.2875 31.4259C47.0806 30.9108 46.9771 30.1895 47.0806 29.6743C47.184 29.1592 47.4945 28.747 47.8049 28.4379C48.6327 27.6136 49.9778 27.3045 51.0126 27.9227C51.7369 28.4379 52.0473 29.4683 52.0473 30.3956C51.7369 31.1168 51.4265 32.0442 51.0126 32.8684ZM62.3947 24.9347C61.6704 25.3468 60.946 25.862 60.3252 26.4802C59.6009 27.2015 59.0835 28.1288 58.98 29.1592C58.7731 31.2199 60.0148 33.0745 61.3599 34.517C61.2565 34.414 60.6356 34.311 60.4287 34.311C59.8078 34.1049 59.2905 33.7958 58.7731 33.3836C57.8418 32.5593 57.221 31.4259 57.014 30.1895C56.9106 29.7774 56.9106 29.4683 57.014 29.0561C57.1175 28.644 57.221 28.1288 57.4279 27.7167C58.6696 25.1408 61.0495 23.8013 63.8433 24.1104C63.5329 24.1104 62.8086 24.7286 62.3947 24.9347ZM66.6371 15.0432L66.7406 14.8372C66.7406 14.9402 66.7406 15.0432 66.6371 15.0432Z" fill="url(#paint3_linear)"/>
<defs>
<linearGradient id="paint0_linear" x1="5.97671" y1="51.3083" x2="64.3529" y2="51.3083" gradientUnits="userSpaceOnUse">
<stop offset="4.93954e-07" stop-color="#FFF800"/>
<stop offset="1" stop-color="#FFC815"/>
</linearGradient>
<linearGradient id="paint1_linear" x1="5.97671" y1="44.2147" x2="64.3529" y2="44.2147" gradientUnits="userSpaceOnUse">
<stop offset="4.93954e-07" stop-color="#FFF800"/>
<stop offset="1" stop-color="#FFC815"/>
</linearGradient>
<linearGradient id="paint2_linear" x1="66.6776" y1="14.9665" x2="66.8035" y2="14.9665" gradientUnits="userSpaceOnUse">
<stop offset="4.93954e-07" stop-color="#FFF800"/>
<stop offset="1" stop-color="#FFC815"/>
</linearGradient>
<linearGradient id="paint3_linear" x1="-0.323976" y1="19.2353" x2="70.8387" y2="19.2353" gradientUnits="userSpaceOnUse">
<stop offset="4.93954e-07" stop-color="#FFF800"/>
<stop offset="1" stop-color="#FFC815"/>
</linearGradient>
</defs>
</svg>
